<?xml version="1.0" encoding="utf-8"?>
<!-- Generator: Adobe Illustrator 23.0.3, SVG Export Plug-In . SVG Version: 6.00 Build 0)  -->
<svg version="1.1" id="Layer_1" xmlns="http://www.w3.org/2000/svg" xmlns:xlink="http://www.w3.org/1999/xlink" x="0px" y="0px"
	 viewBox="0 0 450 283" style="enable-background:new 0 0 450 283;" xml:space="preserve">
<style type="text/css">
	.st0{fill:#EBEBFF;}
	.st1{fill:#D6D7F4;}
	.st2{fill:#3D5AC4;}
	.st3{fill:#5571E9;}
	.st4{fill:#27429C;}
	.st5{fill:#312C76;}
	.st6{fill:#151247;}
	.st7{opacity:0.16;fill:#5571E9;}
	.st8{clip-path:url(#XMLID_5_);fill:#FFFFFF;}
	.st9{fill:#14103D;}
	.st10{fill:#EB8175;}
	.st11{fill:#231C61;}
	.st12{fill:#E1AD9D;}
	.st13{fill:#C8C6F2;}
	.st14{fill:#D8D7FD;}
	.st15{fill:#091218;}
	.st16{fill:#1B2934;}
	.st17{fill:#FFFFFF;}
	.st18{fill:#E16C5F;}
	.st19{clip-path:url(#XMLID_6_);fill:#231C61;}
	.st20{fill:#F5D100;}
	.st21{fill:none;stroke:#F1AB00;stroke-width:0.2802;stroke-miterlimit:10;}
	.st22{fill:none;stroke:#FFFFFF;stroke-width:1.1206;stroke-linecap:round;stroke-linejoin:round;stroke-miterlimit:10;}
	.st23{fill:#334FBE;}
	.st24{fill:#4265D1;}
	.st25{clip-path:url(#XMLID_7_);fill:#231C61;}
	.st26{fill:none;stroke:#F1AB00;stroke-width:0.2834;stroke-miterlimit:10;}
	.st27{fill:none;stroke:#FFFFFF;stroke-width:1.1334;stroke-linecap:round;stroke-linejoin:round;stroke-miterlimit:10;}
	.st28{fill:none;stroke:#3D5AC4;stroke-width:2.6489;stroke-miterlimit:10;}
	.st29{fill:none;stroke:#5571E9;stroke-width:2.6489;stroke-miterlimit:10;}
	.st30{fill:#2F4DAB;}
	.st31{fill:none;stroke:#231C61;stroke-width:2.1624;stroke-miterlimit:10;}
	.st32{fill:none;stroke:#231C61;stroke-width:1.1138;stroke-miterlimit:10;}
	.st33{fill:#373482;}
	.st34{fill:none;stroke:#5571E9;stroke-width:2.6489;stroke-linecap:round;stroke-linejoin:round;stroke-miterlimit:10;}
	.st35{clip-path:url(#XMLID_9_);fill:#FAFAFA;}
	.st36{fill:#E8C400;}
	.st37{clip-path:url(#XMLID_10_);fill:#FAFAFA;}
	.st38{fill:none;stroke:#3D5AC4;stroke-width:1.1366;stroke-linecap:round;stroke-linejoin:round;stroke-miterlimit:10;}
</style>
<g>
	<g>
		<g>
			<path class="st0" d="M445.5,201.46c4.82-15.63,5.95-32.26,2.49-48.24c-5.41-25.01-22.83-55.28-73.11-68.34
				c-95.18-24.73-128.23-97.06-217.26-74.02c0,0-47.78,8.68-70.39,87.74C64.62,177.66-23.99,179.01,6.52,247.85
				c4.99,11.25,18.41,23.53,37.69,35.12l361.07-1.21C430.23,251.75,437.99,225.8,445.5,201.46z"/>
		</g>
		<g>
			<path class="st1" d="M360.31,144.92h-13.55V130.1c0-7.44-5.18-13.65-12.13-15.27V96.44h-4.99v18.04
				c-8,0.72-14.27,7.43-14.27,15.62v15.26H301.9v17h-0.91v31.59l-24.49-0.18v-37.76h-28.07v27.67h-19.69v26.88h-23.8v71.15h79.07
				v-0.01h16.98v0.01h99.15V192h-39.87L360.31,144.92z"/>
			<polygon class="st1" points="80.77,184.03 80.77,148.66 94.03,148.66 94.03,129.74 99.02,129.74 99.02,148.66 111.23,148.66 
				111.23,184.03 124.94,184.03 124.94,205.22 146.78,205.22 146.78,133.03 192.39,133.03 192.39,281.72 162.67,281.72 
				149.87,281.72 117.65,281.72 102.77,281.72 63.9,281.72 63.9,184.03 			"/>
		</g>
	</g>
	<g>
		<g>
			<g>
				<path class="st2" d="M329.92,281.36l-207.86,0.16c-7.87,0.01-14.26-6.37-14.27-14.24l0,0l236.36-0.18l0,0
					C344.17,274.97,337.79,281.36,329.92,281.36z"/>
				<path class="st3" d="M329.92,276.46l-207.86,0.16c-6.15,0-11.37-3.89-13.38-9.34l-0.89,0c0.01,7.87,6.39,14.25,14.27,14.24
					l207.86-0.16c7.87-0.01,14.25-6.39,14.24-14.27l-0.89,0C341.28,272.55,336.06,276.45,329.92,276.46z"/>
				<path class="st4" d="M239.41,271.95l-26.85,0.02c-2.64,0-4.77-2.13-4.78-4.77l0,0l36.4-0.03l0,0
					C244.18,269.81,242.05,271.95,239.41,271.95z"/>
			</g>
			<g>
				<path class="st3" d="M332,267.11l-212.04,0.17l-0.1-127.98c-0.01-7.34,5.94-13.3,13.28-13.3l185.45-0.14
					c7.34-0.01,13.3,5.94,13.3,13.28L332,267.11z"/>
				<rect x="130.95" y="136.97" class="st5" width="189.95" height="119.16"/>
				<rect x="130.99" y="244.74" class="st6" width="189.95" height="11.39"/>
				<rect x="130.91" y="136.97" class="st6" width="189.95" height="5.65"/>
				<g>
					<polygon class="st7" points="194.25,137 130.95,200.4 131,256.21 131.13,256.21 250.2,136.95 					"/>
					<polygon class="st7" points="155.52,256.19 183.57,256.17 302.64,136.91 274.59,136.94 					"/>
					<polygon class="st7" points="298.61,256.08 320.93,233.72 320.9,191.41 253.88,256.1 					"/>
				</g>
			</g>
		</g>
		<g>
			<defs>
				<rect id="XMLID_8_" x="119.86" y="187.87" width="212.14" height="23.42"/>
			</defs>
			<use xlink:href="#XMLID_8_"  style="overflow:visible;fill:#F5D100;"/>
			<clipPath id="XMLID_5_">
				<use xlink:href="#XMLID_8_"  style="overflow:visible;"/>
			</clipPath>
			<polygon class="st8" points="146.33,219.5 128.08,219.5 143.79,183.56 162.04,183.56 			"/>
			<polygon class="st8" points="185.25,219.5 167,219.5 182.71,183.56 200.96,183.56 			"/>
			<polygon class="st8" points="224.18,219.5 205.92,219.5 221.64,183.56 239.89,183.56 			"/>
			<polygon class="st8" points="263.1,219.5 244.85,219.5 260.56,183.56 278.81,183.56 			"/>
			<polygon class="st8" points="302.03,219.5 283.77,219.5 299.49,183.56 317.74,183.56 			"/>
		</g>
	</g>
	<g>
		<g>
			<g>
				<g>
					<g>
						<path class="st9" d="M102.83,147.44l-4.15,0.16l-2.43-0.77c-1.12-0.35-2.33,0.07-2.98,1.04l-0.31,0.45l12.12,6.7l2.34-5.03
							L102.83,147.44z"/>
						<path class="st9" d="M105.09,155.12l-12.22-6.75l0.43-0.77c0.08-0.15,0.28-0.21,0.43-0.12l11.94,6.6L105.09,155.12"/>
					</g>
					<polygon class="st10" points="107.43,149.99 110.64,144.44 107.43,138.72 102.83,147.44 					"/>
				</g>
				<path class="st9" d="M132.53,118.1c0,0-17.28-4.96-18.94-0.29c-1.66,4.66-11.74,25.3-11.74,25.3l7.52,3.92l11.28-19.6
					l15.18-1.32L132.53,118.1z"/>
			</g>
			<g>
				<g>
					<g>
						<path class="st9" d="M118.48,153.73l-3.38,2.15l-2.5,0.5c-1.15,0.23-2,1.19-2.11,2.36l-0.05,0.55l13.85-0.02l-0.39-5.53
							L118.48,153.73z"/>
						<path class="st9" d="M124.35,159.35l-13.96,0.02l0-0.88c0-0.17,0.14-0.32,0.32-0.32l13.64-0.02L124.35,159.35"/>
					</g>
					<polygon class="st10" points="123.91,153.73 124.35,144.44 118.84,143.82 118.48,153.73 					"/>
				</g>
				<path class="st11" d="M134.86,117.31l-16.28,0.74c0,0-2.34,0.13-2.18,5.61c0.16,5.48,0.14,27.54,0.14,27.54l7.82,0.27l1.5-23.11
					l16.3-0.2c3.44-0.04,6.63-2.01,7.99-5.17c0.52-1.21,0.77-2.56,0.45-3.98L134.86,117.31z"/>
			</g>
		</g>
		<g>
			<g>
				<g>
					<path class="st12" d="M119.41,114.03c0,1.55-1.04,1.78-2.59,1.78c-1.55,0-3-0.23-3.01-1.77c0-1.55,1.25-2.8,2.79-2.8
						C118.15,111.23,119.4,112.48,119.41,114.03z"/>
					<path class="st12" d="M121.37,115.61l-3.23,0.01c-0.84,0-1.54-0.69-1.54-1.53l0,0c0-0.84,0.69-1.54,1.53-1.54l3.23-0.01
						c0.84,0,1.54,0.69,1.54,1.53l0,0C122.91,114.91,122.22,115.61,121.37,115.61z"/>
				</g>
				<path class="st13" d="M121.25,115.93l-1.08-5.29l13.29-1.45l2.66-15.53c0.27-1.41,2.31-3.16,3.72-2.9l-0.41-0.12
					c1.41,0.27,2.71,1.91,2.44,3.32l-2.59,18.58c-0.19,1-0.95,1.8-1.94,2.04L121.25,115.93z"/>
			</g>
			<path class="st14" d="M147.81,91.11c0.27,0.02,0.54,0.08,0.8,0.18l0.13,0.05c2.28,0.89,3.83,3.34,3.93,5.63l-2.08,22.04
				c-13.78-0.12-15.73-1.71-15.73-1.71l1.09-22.54c0.17-2.13,1.14-4.13,3.56-4.33l0,0L147.81,91.11z"/>
			<g>
				<g>
					<g>
						<path class="st10" d="M132.64,115.76c0.11,1.54-0.92,1.84-2.47,1.95c-1.54,0.11-3.01-0.03-3.12-1.57
							c-0.11-1.54,1.06-2.88,2.6-2.98C131.19,113.05,132.53,114.22,132.64,115.76z"/>
						<path class="st10" d="M134.7,117.21l-3.23,0.22c-0.84,0.06-1.58-0.58-1.64-1.43l0,0c-0.06-0.84,0.58-1.58,1.43-1.64l3.23-0.22
							c0.84-0.06,1.58,0.58,1.64,1.43l0,0C136.19,116.41,135.54,117.15,134.7,117.21z"/>
					</g>
					<path class="st14" d="M134.6,117.54l-1.43-5.21l14.49-2.33l-0.82-13.47c0.17-1.43,1.74-3.03,3.16-2.86l0,0
						c1.43,0.17,2.83,1.72,2.66,3.15l1.04,16.14c-0.12,1.01-0.83,1.86-1.8,2.17L134.6,117.54z"/>
				</g>
			</g>
			<g>
				<path class="st15" d="M109.53,99.64l15.81,1.49c0.52,0.05,0.93,0.45,0.99,0.97l1.66,14.24c0.08,0.7-0.5,1.3-1.2,1.23
					l-16.07-1.52c-0.53-0.05-0.95-0.47-1-0.99l-1.4-14.22C108.26,100.16,108.84,99.58,109.53,99.64z"/>
				<path class="st16" d="M108.62,99.56l15.81,1.49c0.52,0.05,0.93,0.45,0.99,0.97l1.66,14.24c0.08,0.7-0.5,1.3-1.2,1.23
					l-16.07-1.52c-0.53-0.05-0.95-0.47-1-0.99l-1.4-14.22C107.35,100.07,107.93,99.49,108.62,99.56z"/>
				<path class="st15" d="M127.55,116.45l10.8,1.02c0.33,0.03,0.57,0.32,0.54,0.65l0,0c-0.03,0.33-0.32,0.57-0.65,0.54l-11.45-1.04
					L127.55,116.45z"/>
				<path class="st17" d="M117.68,108.2c-0.09,0.95-0.93,1.65-1.88,1.56c-0.95-0.09-1.65-0.93-1.56-1.88
					c0.09-0.95,0.93-1.65,1.88-1.56C117.07,106.4,117.77,107.25,117.68,108.2z"/>
			</g>
			<polygon class="st13" points="146.33,99.64 146.69,109.77 133.17,112.33 145.08,108.61 			"/>
		</g>
		<g>
			<g>
				<path class="st10" d="M139.16,89.76l0.9,2.42c0.33,0.87,1.13,1.48,2.07,1.54l0,0c1.77,0.12,3.04-1.67,2.35-3.3l-1.59-3.72
					L139.16,89.76z"/>
				<path class="st18" d="M139.97,91.92c0,0,4.45-0.84,3.8-4.73c-0.65-3.89-4.84-0.86-4.84-0.86l0.41,3.89L139.97,91.92z"/>
				<g>
					<g>
						<defs>
							<path id="XMLID_1_" d="M133.1,80.28c-1.63,3.49-0.13,7.65,3.37,9.28c3.49,1.63,7.65,0.13,9.28-3.37
								c1.63-3.49,0.13-7.65-3.37-9.28C138.89,75.28,134.73,76.78,133.1,80.28z"/>
						</defs>
						<use xlink:href="#XMLID_1_"  style="overflow:visible;fill:#EB8175;"/>
						<clipPath id="XMLID_6_">
							<use xlink:href="#XMLID_1_"  style="overflow:visible;"/>
						</clipPath>
						<path class="st19" d="M142.02,84.61c0,0-1.1,5.59,3.01,5.72c4.11,0.12,1.87-10.49,1.87-10.49l-6.51-6.55l-9.96,2.45l0.99,6.44
							c0,0,1.58,0.84,10.14-0.57L142.02,84.61z"/>
						<polygon class="st19" points="137.95,80.23 141.22,85.02 144.04,81.9 						"/>
					</g>
					<path class="st10" d="M140.92,83.31c-0.46,0.99-0.04,2.16,0.95,2.62c0.99,0.46,2.16,0.04,2.62-0.95
						c0.46-0.99,0.04-2.16-0.95-2.62C142.55,81.9,141.38,82.33,140.92,83.31z"/>
				</g>
			</g>
			<g>
				<path class="st20" d="M131.74,82.07c0,0-1.51-5.5,2.06-8.91c2.94-2.81,7.75-2.63,10.37,0.49c1.23,1.46,2.21,3.67,2.3,6.99
					L131.74,82.07z"/>
				<path class="st21" d="M132.5,81.98l-0.04-3.44c-0.01-0.87,0.67-1.59,1.54-1.64l0,0c0.86-0.04,1.6,0.6,1.69,1.45l0.34,3.43"/>
				<line class="st22" x1="146.47" y1="80.64" x2="130.45" y2="82.17"/>
			</g>
		</g>
	</g>
	<g>
		<g>
			<g>
				<polygon class="st10" points="292.37,266.32 295.97,269.8 291.87,272.01 288.36,268.57 				"/>
				<path class="st9" d="M267.09,240.33l2.4,10.62c0.48,2.13,1.4,4.17,2.73,6.04l15.8,14.2l6.25-5.09l-13.49-14.29l-4.94-18.84
					L267.09,240.33z"/>
				<g>
					<path class="st9" d="M291.75,271.91l-1.29,4.13l-1.48,2.06c-0.68,0.95-0.65,2.23,0.06,3.14l0.33,0.43l10.08-9.39l-4.03-3.77
						L291.75,271.91z"/>
					<polyline class="st9" points="299.56,272.3 289.4,281.77 288.58,280.9 298.74,271.43 299.56,272.3 					"/>
				</g>
			</g>
			<g>
				<polygon class="st10" points="257.82,272.78 256.47,277.28 251.85,276.04 253.2,271.63 				"/>
				<path class="st11" d="M264.03,228.48l-12.96,43.81l8.18,2.04l7.3-21.96L275.5,238c0.46-0.64,0.9-1.31,1.28-2.01
					c0.72-1.31,1.04-2.75,1.02-4.19l-0.03-2.85L264.03,228.48z"/>
				<g>
					<path class="st9" d="M252.11,275.61l-4.09,1.51l-2.55,0.09c-1.17,0.04-2.18,0.85-2.47,1.99l-0.14,0.53l13.7,2.25l0.53-5.54
						L252.11,275.61z"/>
					<polyline class="st9" points="256.61,282.08 242.8,279.81 242.99,278.62 256.8,280.89 256.61,282.08 					"/>
				</g>
			</g>
		</g>
		<g>
			<g>
				<g>
					<polygon class="st23" points="245.93,183.97 240.7,192.15 243.21,193.95 248.63,185.3 					"/>
					<path class="st24" d="M239.13,170.43c0,0,2.42,10.13,14.69,14.12c0.35,0.12,0.62,0.41,0.67,0.78c0.16,1.17,0.16,3.71-2.56,4.46
						c-0.26,0.07-0.54,0.02-0.77-0.12c-1.88-1.17-11.1-6.57-20.06-5.01L239.13,170.43z"/>
					<path class="st23" d="M239.13,170.43c0,0-2.25,10.11-8.02,14.23C231.11,184.65,231.92,175.79,239.13,170.43z"/>
				</g>
				<g>
					<g>
						<g>
							<path class="st10" d="M238.99,191.62c-0.38,1.86,1.15,4.13,3.01,4.51c1.86,0.38,3.68-0.82,4.06-2.68
								c0.38-1.86-1.15-4.13-3.01-4.51C241.18,188.56,239.37,189.76,238.99,191.62z"/>
						</g>
						<polyline class="st10" points="248.83,197.07 245.2,193.28 242.83,196.2 248.83,200.6 						"/>
					</g>
					<path class="st13" d="M248.25,193.57l-3.84,5.71l10.5,9.61c0.64,0.18,1.31,0.25,1.97,0.19l13.86-1.8
						c2.18-0.1,3.87-1.96,3.77-4.14l0,0c-0.1-2.18,0.32-5.34-1.87-5.24l-16.1,3.31L248.25,193.57z"/>
				</g>
			</g>
			<g>
				<g>
					<path class="st14" d="M279.34,206.66c0.37-3.03-1-6.02-3.57-7.67c-1.15-0.74-2.3-1.24-3.12-1.1c-2.76,0.47-5.61,1.72-6.82,5.45
						c-2.07,6.35-2.66,25.1-2.66,25.1l14.86,0.51L279.34,206.66z"/>
				</g>
				<polygon class="st13" points="273.85,207.13 278.32,223.55 279.22,209.62 				"/>
			</g>
			<g>
				<g>
					<g>
						<path class="st10" d="M292.06,239.53c1.4-1.28,1.51-4.01,0.23-5.42c-1.28-1.4-3.45-1.51-4.85-0.23
							c-1.4,1.28-1.51,4.01-0.23,5.42C288.48,240.7,290.66,240.8,292.06,239.53z"/>
					</g>
					<polyline class="st10" points="285.32,227.84 288.03,234.52 291.67,233.56 289.42,226.47 					"/>
				</g>
				<path class="st14" d="M285.49,232.99l7.44-1.64l-5.05-17.26c-0.19-0.64-0.49-1.24-0.89-1.77l-9.26-11.53
					c-1.25-1.79-3.36-1.47-5.16-0.22l0,0c-1.79,1.25-2.23,3.72-0.98,5.51l8.92,10.73L285.49,232.99z"/>
			</g>
		</g>
		<g>
			<g>
				<path class="st10" d="M269.16,195.64l0.28,2.6c0.1,0.94,0.74,1.73,1.64,2.02l0,0c1.7,0.56,3.4-0.88,3.12-2.65l-0.63-4.05
					L269.16,195.64z"/>
				<path class="st18" d="M269.42,197.95c0,0,4.59-0.15,4.92-4.13c0.33-3.98-4.55-1.61-4.55-1.61l-0.57,3.91L269.42,197.95z"/>
				<g>
					<g>
						<defs>
							<path id="XMLID_11_" d="M265.58,184.83c-2.47,3.02-2.03,7.47,0.99,9.94c3.02,2.47,7.47,2.03,9.94-0.99
								c2.47-3.02,2.03-7.47-0.99-9.94C272.51,181.36,268.05,181.81,265.58,184.83z"/>
						</defs>
						<use xlink:href="#XMLID_11_"  style="overflow:visible;fill:#EB8175;"/>
						<clipPath id="XMLID_7_">
							<use xlink:href="#XMLID_11_"  style="overflow:visible;"/>
						</clipPath>
						<path class="st25" d="M273.24,191.29c0,0-2.47,5.21,1.53,6.35c4,1.14,4.45-9.82,4.45-9.82l-4.75-8.04l-10.37-0.08l-0.63,6.56
							c0,0,1.34,1.22,10.09,1.97L273.24,191.29z"/>
						<polygon class="st25" points="270.35,185.99 272.37,191.5 275.91,189.14 						"/>
					</g>
					<path class="st10" d="M272.49,189.75c-0.7,0.85-0.57,2.11,0.28,2.81c0.85,0.7,2.11,0.57,2.81-0.28
						c0.7-0.85,0.57-2.11-0.28-2.81C274.45,188.77,273.19,188.89,272.49,189.75z"/>
				</g>
			</g>
			<g>
				<path class="st20" d="M263.76,186.85c0,0-0.35-5.76,3.9-8.39c3.5-2.17,8.22-0.98,10.16,2.65c0.91,1.71,1.42,4.09,0.82,7.39
					L263.76,186.85z"/>
				<path class="st26" d="M264.53,186.92l0.67-3.41c0.17-0.86,1-1.44,1.87-1.3l0,0c0.86,0.14,1.46,0.93,1.36,1.79l-0.37,3.47"/>
				<line class="st27" x1="278.64" y1="188.5" x2="262.46" y2="186.68"/>
			</g>
		</g>
	</g>
	<g>
		<g>
			<line class="st28" x1="377.4" y1="230.38" x2="360.66" y2="246.89"/>
			<line class="st28" x1="377.4" y1="212.74" x2="360.66" y2="229.25"/>
			<line class="st28" x1="377.4" y1="195.11" x2="360.66" y2="211.61"/>
			<line class="st28" x1="377.4" y1="177.47" x2="360.66" y2="193.97"/>
			<line class="st28" x1="377.4" y1="159.83" x2="360.66" y2="176.34"/>
			<line class="st28" x1="377.4" y1="142.2" x2="360.66" y2="158.7"/>
			<line class="st28" x1="377.4" y1="124.56" x2="360.66" y2="141.06"/>
			<line class="st28" x1="377.4" y1="106.92" x2="360.66" y2="123.43"/>
			<line class="st28" x1="377.4" y1="89.28" x2="360.66" y2="105.79"/>
			<line class="st28" x1="377.4" y1="71.65" x2="360.66" y2="88.15"/>
			<line class="st28" x1="377.4" y1="54.01" x2="360.66" y2="70.51"/>
			<line class="st28" x1="360.66" y1="229.25" x2="377.4" y2="229.25"/>
			<line class="st28" x1="360.66" y1="211.61" x2="377.4" y2="211.61"/>
			<line class="st28" x1="360.66" y1="193.97" x2="377.4" y2="193.97"/>
			<line class="st28" x1="360.66" y1="176.34" x2="377.4" y2="176.34"/>
			<line class="st28" x1="360.66" y1="158.7" x2="377.4" y2="158.7"/>
			<line class="st28" x1="360.66" y1="141.06" x2="377.4" y2="141.06"/>
			<line class="st28" x1="360.66" y1="123.43" x2="377.4" y2="123.43"/>
			<line class="st28" x1="360.66" y1="105.79" x2="377.4" y2="105.79"/>
			<line class="st28" x1="360.66" y1="88.15" x2="377.4" y2="88.15"/>
			<line class="st28" x1="360.66" y1="70.51" x2="377.4" y2="70.51"/>
			<line class="st29" x1="360.66" y1="251.67" x2="360.66" y2="56.83"/>
			<line class="st29" x1="377.4" y1="251.67" x2="377.4" y2="56.83"/>
			<rect x="352.03" y="246.89" class="st11" width="33.34" height="34.64"/>
		</g>
		<g>
			<g>
				<path class="st2" d="M378.71,56.83h-19.96c-2.38,0-4.3-1.93-4.3-4.3V28.14c0-2.38,1.93-4.3,4.3-4.3h19.96
					c2.38,0,4.3,1.93,4.3,4.3v24.39C383.01,54.9,381.09,56.83,378.71,56.83z"/>
				<path class="st30" d="M369.23,47.23h-12.18V31.79h12.18c1.8,0,3.26,1.46,3.26,3.26v8.92C372.49,45.77,371.03,47.23,369.23,47.23
					z"/>
			</g>
			<g>
				<g>
					<line class="st31" x1="250.2" y1="58.63" x2="263.6" y2="97.54"/>
					<line class="st31" x1="240.89" y1="54.01" x2="214.77" y2="89.28"/>
					<g>
						<path class="st20" d="M247.46,69.72l29.43,38.49c2.29,3,1.72,7.29-1.28,9.59l-38.49,29.43c-3,2.29-7.29,1.72-9.59-1.28
							l-29.43-38.49c-2.29-3-1.72-7.29,1.28-9.59l38.49-29.43C240.88,66.15,245.17,66.72,247.46,69.72z"/>
						<path class="st32" d="M245.65,76.65l24.08,31.49c1.88,2.45,1.41,5.97-1.05,7.84l-31.49,24.08c-2.45,1.88-5.97,1.41-7.84-1.05
							l-24.08-31.49c-1.88-2.45-1.41-5.97,1.05-7.84l31.49-24.08C240.27,73.72,243.78,74.19,245.65,76.65z"/>
						<g>
							<path class="st11" d="M239.8,121c-0.7,5.24-8.65,4.18-7.95-1.06C232.55,114.66,240.5,115.72,239.8,121z M243.22,91.73
								l-3.12,22.02l-6.69-0.89c0.99-7.41,1.81-14.61,2.8-22.06L243.22,91.73z"/>
						</g>
					</g>
				</g>
				<g>
					<g>
						<circle class="st11" cx="246.38" cy="50.71" r="11.2"/>
						<path class="st33" d="M254.3,50.71c0,4.37-3.54,7.92-7.92,7.92s-7.92-3.54-7.92-7.92c0-4.37,3.54-7.92,7.92-7.92
							S254.3,46.34,254.3,50.71z"/>
					</g>
					<g>
						<line class="st28" x1="290.29" y1="0.11" x2="290.29" y2="23.84"/>
						<line class="st28" x1="269.01" y1="0.11" x2="269.01" y2="23.84"/>
						<line class="st28" x1="311.5" y1="0.11" x2="311.5" y2="23.84"/>
						<line class="st28" x1="335.07" y1="0.11" x2="335.07" y2="23.84"/>
						<line class="st28" x1="357.06" y1="0.11" x2="357.06" y2="23.84"/>
						<line class="st28" x1="379.85" y1="0.11" x2="379.85" y2="23.84"/>
						<line class="st28" x1="402.24" y1="0.11" x2="402.24" y2="23.84"/>
						<line class="st28" x1="267.9" y1="23.84" x2="290.29" y2="0.11"/>
						<line class="st28" x1="290.29" y1="23.84" x2="312.68" y2="0.11"/>
						<line class="st28" x1="312.68" y1="23.84" x2="335.07" y2="0.11"/>
						<line class="st28" x1="335.07" y1="23.84" x2="357.46" y2="0.11"/>
						<line class="st28" x1="357.46" y1="23.84" x2="379.85" y2="0.11"/>
						<line class="st28" x1="379.85" y1="23.84" x2="402.24" y2="0.11"/>
						<polygon class="st34" points="246.38,23.84 428.94,23.84 404.36,0.11 265.27,0.11 						"/>
						<line class="st34" x1="246.38" y1="23.84" x2="246.38" y2="50.71"/>
					</g>
				</g>
			</g>
		</g>
	</g>
	<g>
		<g>
			<g>
				<defs>
					<path id="XMLID_4_" d="M149.87,278.32l12.78-33.03c0.61-1.57,2.84-1.57,3.45,0l12.78,33.03H149.87z"/>
				</defs>
				<use xlink:href="#XMLID_4_"  style="overflow:visible;fill:#F5D100;"/>
				<clipPath id="XMLID_9_">
					<use xlink:href="#XMLID_4_"  style="overflow:visible;"/>
				</clipPath>
				<rect x="152.83" y="252.39" class="st35" width="22.69" height="7.01"/>
				<rect x="151.59" y="265.64" class="st35" width="25.66" height="7.01"/>
			</g>
			<rect x="147.53" y="278.32" class="st36" width="33.82" height="2.78"/>
		</g>
		<g>
			<g>
				<defs>
					<path id="XMLID_3_" d="M335.43,278.42l12.78-33.03c0.61-1.57,2.84-1.57,3.45,0l12.78,33.03H335.43z"/>
				</defs>
				<use xlink:href="#XMLID_3_"  style="overflow:visible;fill:#F5D100;"/>
				<clipPath id="XMLID_10_">
					<use xlink:href="#XMLID_3_"  style="overflow:visible;"/>
				</clipPath>
				<rect x="338.39" y="252.5" class="st37" width="22.69" height="7.01"/>
				<rect x="337.15" y="265.74" class="st37" width="25.66" height="7.01"/>
			</g>
			<rect x="333.09" y="278.42" class="st36" width="33.82" height="2.78"/>
		</g>
	</g>
	<g>
		<g>
			
				<ellipse transform="matrix(0.1473 -0.9891 0.9891 0.1473 -152.076 269.833)" class="st3" cx="80.46" cy="223.12" rx="26.54" ry="26.54"/>
			<g>
				<line class="st38" x1="80.46" y1="213.66" x2="80.46" y2="281.1"/>
				<line class="st38" x1="70.14" y1="215.03" x2="80.46" y2="226.61"/>
				<path class="st38" d="M89.61,225.97c-0.74,0.74-9.15,9.5-9.15,9.5"/>
			</g>
		</g>
		<line class="st38" x1="0.58" y1="281.75" x2="445.72" y2="281.75"/>
	</g>
</g>
</svg>
